<?xml version="1.0" encoding="UTF-8"?>
<svg version="1.1" xmlns="http://www.w3.org/2000/svg" width="3264" height="3264">
<path d="M0 0 C1.63542207 1.50962037 3.2599431 3.03111167 4.875 4.5625 C6.30779297 5.91601562 6.30779297 5.91601562 7.76953125 7.296875 C15.24115321 14.48868803 21.70159809 22.24004811 27.875 30.5625 C28.82826172 31.84060547 28.82826172 31.84060547 29.80078125 33.14453125 C34.97383285 40.31545105 39.45249932 47.91493367 43.875 55.5625 C44.535 56.69042969 45.195 57.81835938 45.875 58.98046875 C63.70690454 90.79747584 72.65875411 127.43583103 75.875 163.5625 C75.98585938 164.70460938 76.09671875 165.84671875 76.2109375 167.0234375 C80.56731388 221.30153235 73.62509351 279.17859343 47.86181641 327.69042969 C46.87833174 329.55617942 45.92680144 331.43548831 44.98046875 333.3203125 C36.56533176 349.87252483 25.49634187 364.58963699 12.953125 378.23828125 C11.52575848 379.83467802 10.1511632 381.47935994 8.82421875 383.16015625 C5.8937433 386.77186447 2.41282485 389.5615655 -1.125 392.5625 C-2.07632813 393.40167969 -3.02765625 394.24085938 -4.0078125 395.10546875 C-11.91732339 402.03496349 -20.21573374 407.98703911 -29.125 413.5625 C-30.1871875 414.23925781 -31.249375 414.91601562 -32.34375 415.61328125 C-62.1473577 433.66182523 -97.10523859 441.78331666 -131.6875 441.8125 C-132.41021088 441.81317474 -133.13292175 441.81384949 -133.87753296 441.81454468 C-154.42925356 441.78430036 -174.40850285 439.55562028 -194.125 433.5625 C-194.79724609 433.35818359 -195.46949219 433.15386719 -196.16210938 432.94335938 C-220.85158037 425.14277426 -242.06376667 410.69881449 -261.125 393.5625 C-262.15560547 392.64210938 -262.15560547 392.64210938 -263.20703125 391.703125 C-268.99201569 386.22974394 -273.18503126 379.98445936 -278.125 373.5625 C-278.62 516.1225 -278.62 516.1225 -279.125 661.5625 C-327.965 661.5625 -376.805 661.5625 -427.125 661.5625 C-427.125 429.2425 -427.125 196.9225 -427.125 -42.4375 C-378.285 -42.4375 -329.445 -42.4375 -279.125 -42.4375 C-278.795 -21.9775 -278.465 -1.5175 -278.125 19.5625 C-275.485 15.9325 -272.845 12.3025 -270.125 8.5625 C-265.14364107 2.64713627 -260.04467092 -2.49064213 -254.125 -7.4375 C-253.26390625 -8.19804688 -252.4028125 -8.95859375 -251.515625 -9.7421875 C-185.1358273 -67.33114713 -74.56383256 -61.55113438 0 0 Z M-250.125 110.5625 C-251.32769531 111.74779297 -251.32769531 111.74779297 -252.5546875 112.95703125 C-273.55523104 134.8659028 -280.56481758 166.2824381 -280.4375 195.75 C-280.43567719 196.4240387 -280.43385437 197.09807739 -280.43197632 197.7925415 C-280.38141747 208.94875383 -279.69341863 219.68969631 -277.125 230.5625 C-276.95871094 231.28002441 -276.79242187 231.99754883 -276.62109375 232.73681641 C-270.23857366 259.23018453 -254.43654991 283.04003445 -231.125 297.5625 C-208.07977323 311.63299581 -181.39250155 316.2942846 -154.90234375 310.5390625 C-126.78012967 303.26858316 -104.22107515 286.47669641 -89.0625 261.6875 C-80.48519615 247.07292419 -76.08983802 231.30342264 -74.125 214.5625 C-73.99480469 213.47453125 -73.86460937 212.3865625 -73.73046875 211.265625 C-70.61302439 179.84178584 -75.69467336 143.93959 -96.234375 118.80078125 C-96.85828125 118.06214844 -97.4821875 117.32351563 -98.125 116.5625 C-98.76953125 115.77230469 -99.4140625 114.98210937 -100.078125 114.16796875 C-108.29676804 104.50345332 -118.60964431 95.9952932 -130.125 90.5625 C-131.79175781 89.71751953 -131.79175781 89.71751953 -133.4921875 88.85546875 C-173.48553184 69.33152504 -219.42208302 79.90331937 -250.125 110.5625 Z " fill="#6366F1" transform="translate(2697.125,1596.4375)"/>
<path d="M0 0 C0.86250366 0.00182281 1.72500732 0.00364563 2.61364746 0.00552368 C15.25529178 0.05053209 27.51028146 0.46061486 39.875 3.3125 C41.03056396 3.56193359 41.03056396 3.56193359 42.20947266 3.81640625 C67.20657549 9.30023137 90.42717343 20.70459407 109.875 37.3125 C111.24591797 38.45525391 111.24591797 38.45525391 112.64453125 39.62109375 C123.38287975 48.87487794 133.00922517 60.88671119 139.875 73.3125 C139.875 73.9725 139.875 74.6325 139.875 75.3125 C143.13016586 72.22787813 145.76311436 68.90772024 148.4375 65.3125 C169.89149403 37.08335061 199.77914681 16.65358537 233.625 6.125 C234.37362305 5.88692627 235.12224609 5.64885254 235.89355469 5.40356445 C250.9576038 0.92111429 266.05387461 -0.20797245 281.6875 -0.0625 C282.99837082 -0.05651794 282.99837082 -0.05651794 284.33572388 -0.05041504 C297.38907141 0.0193483 310.06992782 0.59884232 322.875 3.3125 C323.59478027 3.45171875 324.31456055 3.5909375 325.05615234 3.734375 C351.85313423 8.93369958 380.53846362 21.29473932 399.328125 41.6640625 C401.00533424 43.53381453 401.00533424 43.53381453 403.8125 45.625 C427.97294732 65.27985039 440.82991136 100.82645567 446.75 130.1875 C447.03689697 131.58101685 447.03689697 131.58101685 447.32958984 133.00268555 C451.09548101 153.50644083 451.16973907 174.62289575 451.10205078 195.39697266 C451.10148468 197.8835347 451.1018071 200.37009708 451.10293579 202.85665894 C451.10338611 208.14807693 451.09784387 213.43944978 451.08646011 218.73085403 C451.07001329 226.38077139 451.06497782 234.03066508 451.06248413 241.68059818 C451.0581366 254.10039297 451.04490864 266.52016106 451.02587891 278.93994141 C451.00744305 290.98486197 450.99334758 303.02977518 450.98486328 315.07470703 C450.98432729 315.82814986 450.98379129 316.58159269 450.98323905 317.35786712 C450.97907876 323.25269528 450.97516542 329.14752359 450.97132993 335.04235196 C450.95255638 363.79909249 450.91229797 392.555766 450.875 421.3125 C408.305 421.3125 365.735 421.3125 321.875 421.3125 C321.83761719 404.08933594 321.80023437 386.86617187 321.76171875 369.12109375 C321.73144097 358.20637218 321.70041572 347.2916612 321.66601562 336.37695312 C321.64796756 330.64135811 321.63010391 324.90576256 321.61254883 319.17016602 C321.61034114 318.45137892 321.60813345 317.73259182 321.60585886 316.99202329 C321.57056318 305.41292295 321.54566296 293.83382268 321.52465298 282.25468861 C321.50283111 270.35667282 321.46972055 258.45872636 321.42629844 246.56076962 C321.40225092 239.88406638 321.3836542 233.207419 321.37738609 226.53066826 C321.37131326 220.23764389 321.35123393 213.94481495 321.32072449 207.6518631 C321.31197947 205.35060804 321.30821429 203.0493274 321.30999184 200.74805641 C321.32336922 175.42269517 317.5718731 151.67100554 299.625 132.4375 C282.72237322 116.64997707 261.37687634 112.19945391 239.0390625 112.3359375 C222.10187294 113.08159993 206.51119302 118.23470401 192.875 128.3125 C192.27042969 128.75078125 191.66585937 129.1890625 191.04296875 129.640625 C175.73424442 141.66644005 168.86312238 161.74328182 166.52709258 180.37050247 C165.39844249 190.41369146 165.56556109 200.51695498 165.55615234 210.609375 C165.54683608 212.91712793 165.53666493 215.22487755 165.52571106 217.53262329 C165.49858844 223.75047876 165.48331467 229.96831181 165.47028303 236.18621063 C165.45457428 242.70180308 165.42780903 249.21735024 165.4022522 255.73291016 C165.36088974 266.65363231 165.32625707 277.57435647 165.296875 288.49511719 C165.26661466 299.73536978 165.23220831 310.97559737 165.19238281 322.21582031 C165.18866055 323.26853194 165.18866055 323.26853194 165.18486309 324.34251046 C165.1632364 330.44879372 165.14129911 336.55507585 165.11933136 342.66135788 C165.02541533 368.87837694 164.95187109 395.09541258 164.875 421.3125 C122.635 421.3125 80.395 421.3125 36.875 421.3125 C36.83761719 404.41289063 36.80023437 387.51328125 36.76171875 370.1015625 C36.73143589 359.38280436 36.70040685 348.66405694 36.66601562 337.9453125 C36.64796836 332.31152413 36.63010483 326.67773523 36.61254883 321.04394531 C36.6092373 319.98494514 36.6092373 319.98494514 36.60585886 318.90455103 C36.57059142 307.54083497 36.54567536 296.17711896 36.52465298 284.81336863 C36.50280843 273.13117008 36.46967687 261.44904189 36.42629844 249.76690328 C36.40244545 243.21361542 36.38366483 236.66040496 36.37738609 230.10707474 C36.3712993 223.92648616 36.35117062 217.74609543 36.32072449 211.56558037 C36.31200156 209.30912467 36.30820961 207.05264305 36.30999184 204.79617119 C36.32456718 177.80362325 33.13122276 152.27060123 13.58984375 131.84765625 C-2.76738243 116.57306662 -24.22044583 112.20220501 -45.9296875 112.3359375 C-67.48634069 113.29299821 -86.44278999 120.6846787 -101.375 136.6875 C-107.46232816 143.91161835 -111.32425058 151.22589109 -114.375 160.125 C-114.62137207 160.83519287 -114.86774414 161.54538574 -115.12158203 162.27709961 C-119.73575938 176.51344707 -119.43042365 190.93741319 -119.44384766 205.7277832 C-119.45315825 208.08435404 -119.46332858 210.44092161 -119.47428894 212.79748535 C-119.50147546 219.16220811 -119.51670459 225.52690888 -119.52971697 231.89167428 C-119.54380631 237.87927512 -119.56693272 243.86683838 -119.58998732 249.85440984 C-119.63532402 261.70459791 -119.67199269 273.55479601 -119.703125 285.4050293 C-119.73336455 296.90830241 -119.76776175 308.41155094 -119.80761719 319.91479492 C-119.8100987 320.63249418 -119.8125802 321.35019343 -119.81513691 322.08964115 C-119.8367623 328.33375567 -119.85870014 334.57786907 -119.88066864 340.82198238 C-119.97466027 367.65212713 -120.04815157 394.48228799 -120.125 421.3125 C-162.695 421.3125 -205.265 421.3125 -249.125 421.3125 C-249.125 283.7025 -249.125 146.0925 -249.125 4.3125 C-206.555 4.3125 -163.985 4.3125 -120.125 4.3125 C-119.795 20.1525 -119.465 35.9925 -119.125 52.3125 C-115.66 48.3525 -115.66 48.3525 -112.125 44.3125 C-91.63675871 21.57633255 -63.02808928 7.69197328 -33.125 2.3125 C-31.66271973 2.04651001 -31.66271973 2.04651001 -30.17089844 1.77514648 C-20.09788661 0.13166278 -10.18505066 -0.04460695 0 0 Z " fill="#6265F0" transform="translate(2146.125,1120.6875)"/>
<path d="M0 0 C10.74596025 9.46027363 19.97638678 19.30930674 27.94238281 31.25830078 C28.27238281 10.46830078 28.60238281 -10.32169922 28.94238281 -31.74169922 C77.78238281 -31.74169922 126.62238281 -31.74169922 176.94238281 -31.74169922 C176.94238281 125.66830078 176.94238281 283.07830078 176.94238281 445.25830078 C128.10238281 445.25830078 79.26238281 445.25830078 28.94238281 445.25830078 C28.61238281 424.46830078 28.28238281 403.67830078 27.94238281 382.25830078 C25.30238281 385.88830078 22.66238281 389.51830078 19.94238281 393.25830078 C14.80708927 399.53115934 9.2301475 405.15079757 2.94238281 410.25830078 C2.43545898 410.67225098 1.92853516 411.08620117 1.40625 411.51269531 C-39.54044564 444.80701889 -88.93833017 456.40221748 -141.09399414 451.79150391 C-144.44090467 451.41532498 -147.74799091 450.8718288 -151.05761719 450.25830078 C-151.91693848 450.10232422 -152.77625977 449.94634766 -153.66162109 449.78564453 C-179.79504836 444.90173703 -206.26520993 435.87131739 -228.05761719 420.25830078 C-228.94964844 419.63568359 -229.84167969 419.01306641 -230.76074219 418.37158203 C-233.56336155 416.37921715 -236.31626046 414.33401198 -239.05761719 412.25830078 C-239.87230469 411.65115234 -240.68699219 411.04400391 -241.52636719 410.41845703 C-291.17189144 371.72865804 -318.2125264 310.58152708 -325.87011719 249.32080078 C-326.31458519 245.63706025 -326.70650358 241.95208038 -327.05761719 238.25830078 C-327.15187988 237.29126221 -327.24614258 236.32422363 -327.34326172 235.32788086 C-328.17730749 225.82886041 -328.30076652 216.34984238 -328.30761719 206.82080078 C-328.30829193 205.96958649 -328.30896667 205.11837219 -328.30966187 204.24136353 C-328.25130583 157.47963672 -319.16200918 111.71058638 -297.05761719 70.25830078 C-296.71649902 69.60941895 -296.37538086 68.96053711 -296.02392578 68.29199219 C-287.34181563 51.86998505 -276.64559302 36.91318671 -264.05761719 23.25830078 C-263.25783447 22.39060059 -263.25783447 22.39060059 -262.44189453 21.50537109 C-250.06426105 8.25432327 -235.88761444 -2.87214848 -220.05761719 -11.74169922 C-219.331875 -12.15629395 -218.60613281 -12.57088867 -217.85839844 -12.99804688 C-198.64180512 -23.88771099 -177.94128152 -32.21876919 -156.05761719 -35.74169922 C-155.1570459 -35.88833008 -154.25647461 -36.03496094 -153.32861328 -36.18603516 C-100.0790974 -44.47979663 -42.12070989 -35.65367161 0 0 Z M-154.05761719 127.25830078 C-176.06913943 156.28663362 -181.57414738 193.24790901 -176.87011719 228.69580078 C-175.49736185 238.18652817 -173.15992443 247.19604051 -170.05761719 256.25830078 C-169.76242187 257.16322266 -169.46722656 258.06814453 -169.16308594 259.00048828 C-163.35912201 275.16678049 -151.65552241 290.83791293 -138.05761719 301.25830078 C-137.01863281 302.06009766 -135.97964844 302.86189453 -134.90917969 303.68798828 C-113.65500888 319.69063636 -87.7411106 326.02052247 -61.34472656 322.94189453 C-33.42604349 318.69743054 -10.68090914 305.14307518 6.94238281 283.25830078 C9.91218924 279.10330207 12.46695394 274.72200319 14.94238281 270.25830078 C15.41289063 269.42814453 15.88339844 268.59798828 16.36816406 267.74267578 C31.16034947 240.08174703 32.953209 203.33032885 25.94238281 173.25830078 C25.77609375 172.54319336 25.60980469 171.82808594 25.43847656 171.09130859 C21.65026558 155.51053713 15.2755686 140.62849452 4.94238281 128.25830078 C3.70875 126.78103516 3.70875 126.78103516 2.45019531 125.27392578 C-15.30829646 104.69838949 -39.61043631 92.41513788 -66.68652344 90.02636719 C-100.31542893 88.04045753 -132.15705681 101.32641503 -154.05761719 127.25830078 Z " fill="#6265F0" transform="translate(1991.0576171875,1585.74169921875)"/>
<path d="M0 0 C1.03415543 0.00040787 1.03415543 0.00040787 2.08920288 0.00082397 C14.63745624 0.02337688 27.04034471 0.65463136 39.5 2.1875 C40.70124512 2.33227783 40.70124512 2.33227783 41.92675781 2.47998047 C88.91004309 8.39416417 134.09189329 28.46266758 168.5 61.1875 C169.05413574 61.70908691 169.60827148 62.23067383 170.17919922 62.76806641 C211.94769875 102.31400133 235.56178973 159.73991881 237.6008606 217.02084351 C237.64635208 219.82940339 237.66469017 222.63638944 237.66796875 225.4453125 C237.67129715 226.47324921 237.67462555 227.50118591 237.67805481 228.56027222 C237.68307807 230.71986449 237.68546457 232.87946439 237.68530273 235.0390625 C237.68748086 238.28398936 237.70566376 241.52857086 237.72460938 244.7734375 C237.72754621 246.89322803 237.72952906 249.01302014 237.73046875 251.1328125 C237.73765427 252.0740799 237.74483978 253.01534729 237.75224304 253.98513794 C237.72190711 263.26276871 236.54537153 271.77915619 235.5 281.1875 C126.6 281.1875 17.7 281.1875 -94.5 281.1875 C-94.17 281.8475 -93.84 282.5075 -93.5 283.1875 C-93.20738102 285.19162422 -92.91846788 287.19638462 -92.65161133 289.20410156 C-89.13028705 314.99165414 -79.29829988 336.74437529 -58.625 353.0625 C-37.25571392 368.22690223 -12.29543403 372.50789621 13.26220703 368.5703125 C32.92025782 365.20746899 48.99519671 355.49299786 60.9375 339.5625 C64.20998132 334.92099405 66.70021221 330.22711802 69.5 325.1875 C121.31 325.1875 173.12 325.1875 226.5 325.1875 C221.66547493 363.86370052 196.6855829 398.64602931 170.5 426.1875 C169.88898438 426.83976562 169.27796875 427.49203125 168.6484375 428.1640625 C163.6763641 433.32465053 158.13682171 437.77668701 152.5 442.1875 C151.9534375 442.61579102 151.406875 443.04408203 150.84375 443.48535156 C122.85969156 465.22069695 90.13628311 479.33137768 55.5625 486.625 C54.45197266 486.85993164 53.34144531 487.09486328 52.19726562 487.33691406 C35.25415977 490.67119874 18.22967862 491.57443056 1 491.5 C0.0920166 491.49784485 -0.8159668 491.4956897 -1.75146484 491.49346924 C-49.79678152 491.31173407 -99.26875128 480.71414386 -139.5 453.1875 C-140.05123535 452.81447754 -140.6024707 452.44145508 -141.17041016 452.05712891 C-150.10319184 445.98184345 -158.3595388 439.27757911 -166.5 432.1875 C-167.2734375 431.5378125 -168.046875 430.888125 -168.84375 430.21875 C-172.84708136 426.83131577 -176.35816224 423.25620031 -179.7421875 419.25 C-180.88351053 417.91084765 -182.05439728 416.5961429 -183.2578125 415.3125 C-195.46363859 402.23847708 -205.11056389 386.91361859 -213.5 371.1875 C-213.89670898 370.44483887 -214.29341797 369.70217773 -214.70214844 368.93701172 C-225.47621539 348.38681109 -232.11132495 325.90034731 -236.5 303.1875 C-236.65162598 302.44290527 -236.80325195 301.69831055 -236.95947266 300.93115234 C-239.19321806 289.79250942 -240.00053177 278.57049104 -240.6875 267.25 C-240.73047211 266.54362396 -240.77344421 265.83724792 -240.81771851 265.10946655 C-243.06186975 227.25062955 -239.5557303 189.26296253 -227.5 153.1875 C-227.07847656 151.9185791 -227.07847656 151.9185791 -226.6484375 150.62402344 C-220.46828647 132.32182385 -212.30692362 115.20550212 -201.5 99.1875 C-201.09136719 98.58067383 -200.68273438 97.97384766 -200.26171875 97.34863281 C-166.20774624 47.26767166 -114.26514144 16.44757038 -55.28076172 4.703125 C-36.97849991 1.30941324 -18.60385137 -0.01258022 0 0 Z M-63.5 140.1875 C-63.5 140.8475 -63.5 141.5075 -63.5 142.1875 C-64.05945312 142.4040625 -64.61890625 142.620625 -65.1953125 142.84375 C-78.90760705 150.83871496 -86.77641693 171.08244138 -90.765625 185.63671875 C-92.70132543 192.3334897 -92.70132543 192.3334897 -93.5 199.1875 C-34.1 199.1875 25.3 199.1875 86.5 199.1875 C86.5 176.20865961 80.27116745 159.52752807 64.23046875 142.82421875 C53.44130362 132.46447313 40.85947715 126.04594749 26.5 122.1875 C25.39011719 121.86910156 24.28023437 121.55070312 23.13671875 121.22265625 C-7.04573163 113.80522507 -39.24746937 120.89571427 -63.5 140.1875 Z " fill="#6265F0" transform="translate(1380.5,1546.8125)"/>
<path d="M0 0 C1.93513299 1.81542755 3.84307125 3.65449893 5.75 5.5 C7.00683594 6.69689453 7.00683594 6.69689453 8.2890625 7.91796875 C13.08992213 12.5823491 16.6277348 17.0036464 20.75 22.5 C21.08 5.01 21.41 -12.48 21.75 -30.5 C64.32 -30.5 106.89 -30.5 150.75 -30.5 C150.75 107.11 150.75 244.72 150.75 386.5 C108.51 386.5 66.27 386.5 22.75 386.5 C21.08376422 384.83376422 21.58259309 382.81241088 21.54467773 380.52124023 C21.52473251 379.46021591 21.50478729 378.39919159 21.48423767 377.30601501 C21.45916893 375.57479149 21.45916893 375.57479149 21.43359375 373.80859375 C21.4024221 372.0461306 21.4024221 372.0461306 21.37062073 370.24806213 C21.30499876 366.47793676 21.2461817 362.70773918 21.1875 358.9375 C21.1443268 356.38866427 21.10071292 353.83983597 21.05664062 351.29101562 C20.94930455 345.02742108 20.8475621 338.76375399 20.75 332.5 C20.26974869 333.11900681 19.78949738 333.73801361 19.29469299 334.3757782 C18.66449753 335.18722794 18.03430206 335.99867767 17.38500977 336.8347168 C16.76038345 337.6393486 16.13575714 338.44398041 15.49220276 339.272995 C-9.28518644 370.94518096 -46.34240649 387.08193662 -85.48828125 391.8984375 C-88.74674605 392.2111825 -91.97826036 392.38378105 -95.25 392.5 C-96.01199707 392.52723145 -96.77399414 392.55446289 -97.55908203 392.58251953 C-148.3516443 394.13589853 -191.46104434 376.4525849 -228.59765625 342.34375 C-242.95619954 328.41339389 -254.02280144 311.14416202 -263.25 293.5 C-263.58596191 292.86610352 -263.92192383 292.23220703 -264.26806641 291.57910156 C-275.00805349 271.04169087 -281.55950226 248.307941 -285.25 225.5 C-285.41226074 224.51290039 -285.57452148 223.52580078 -285.74169922 222.50878906 C-295.85713166 157.6823335 -285.02331438 87.87216236 -246.4296875 33.95703125 C-244.76302799 31.74689581 -243.0278257 29.6218042 -241.25 27.5 C-240.8370166 26.99436523 -240.4240332 26.48873047 -239.99853516 25.96777344 C-218.90536672 0.16823362 -191.46265442 -19.09758636 -159.25 -28.5 C-158.47672363 -28.72768066 -157.70344727 -28.95536133 -156.90673828 -29.18994141 C-104.5398593 -44.34849835 -41.46882851 -38.01693555 0 0 Z M-129.25 101.5 C-130.549375 102.7065625 -130.549375 102.7065625 -131.875 103.9375 C-153.47706559 127.24499182 -158.52970306 156.52405086 -157.41845703 187.42041016 C-156.23589074 209.039093 -149.64390276 230.96360857 -135.25 247.5 C-134.58355469 248.30953125 -133.91710938 249.1190625 -133.23046875 249.953125 C-119.4084725 266.19085754 -98.63574234 277.63855752 -77.25 279.5 C-52.41109196 280.93452554 -29.76700152 275.28713325 -10.67578125 258.6484375 C9.20994166 240.7162239 20.50124702 216.9058595 21.93457031 190.04052734 C22.50996073 173.8902704 22.27350116 158.13670303 17.75 142.5 C17.56276367 141.84805664 17.37552734 141.19611328 17.18261719 140.52441406 C12.72467049 125.610696 5.12029762 113.84106842 -5.25 102.5 C-5.88035156 101.79875 -6.51070312 101.0975 -7.16015625 100.375 C-21.02683805 85.68877436 -41.95215443 76.93469797 -62 76.296875 C-88.55632017 75.89825268 -109.83393502 82.89884286 -129.25 101.5 Z " fill="#6265F0" transform="translate(1656.25,1155.5)"/>
<path d="M0 0 C12.54002023 12.97336866 22.2621269 27.98084083 30.625 43.875 C31.00156738 44.58333984 31.37813477 45.29167969 31.76611328 46.02148438 C48.02185572 77.02048448 54.04515474 112.01043743 53.88574219 146.72558594 C53.8749815 149.50477764 53.88573383 152.28332714 53.8984375 155.0625 C53.89711598 156.88802221 53.89455374 158.71354404 53.890625 160.5390625 C53.89467346 161.34058746 53.89872192 162.14211243 53.90289307 162.96792603 C53.83856442 171.14722075 52.66330382 178.56856946 51.625 186.875 C-43.085 186.875 -137.795 186.875 -235.375 186.875 C-232.03610574 206.90836557 -228.38699869 225.32952127 -213.87890625 240.16796875 C-212.375 241.875 -212.375 241.875 -212.375 243.875 C-211.78460937 244.14957031 -211.19421875 244.42414063 -210.5859375 244.70703125 C-208.46570826 245.82708168 -206.84294823 247.04060836 -205 248.5625 C-186.82017568 262.28122352 -165.10601164 265.2615315 -142.91650391 262.57763672 C-126.33628422 259.85518297 -111.19785796 251.52710135 -101.21484375 237.93359375 C-98.89031703 234.30614759 -96.73214892 230.74217386 -95.08990479 226.75473022 C-91.91409186 223.38610952 -91.18110208 223.40868904 -86.730896 223.1534729 C-84.29946379 223.1360316 -81.86766042 223.15213697 -79.43652344 223.19384766 C-78.09604977 223.19554052 -76.75557053 223.19458928 -75.4151001 223.19119263 C-71.77860156 223.18947093 -68.14329024 223.22474656 -64.50706768 223.26663637 C-60.706128 223.3041427 -56.90516112 223.3076686 -53.10406494 223.31478882 C-45.90741105 223.33343815 -38.71130399 223.38267569 -31.51489091 223.44288576 C-23.32156103 223.50994871 -15.12820503 223.54293924 -6.93466902 223.57305837 C9.9188703 223.63577521 26.77187734 223.74131123 43.625 223.875 C45.25859815 228.77579444 42.92658443 232.98362089 41.3125 237.75 C40.95148193 238.81976074 40.59046387 239.88952148 40.21850586 240.99169922 C31.81416145 265.18434532 19.15207515 286.71244026 1.74609375 305.56640625 C-0.20498345 307.68995436 -2.07468282 309.86175681 -3.9375 312.0625 C-18.94007863 329.18389384 -39.98787224 341.33197615 -60.375 350.875 C-61.46683594 351.39707031 -62.55867188 351.91914062 -63.68359375 352.45703125 C-93.67544073 366.10278156 -127.60237645 371.20245178 -160.375 369.875 C-161.89770508 369.8133667 -161.89770508 369.8133667 -163.45117188 369.75048828 C-218.0399164 367.25686933 -270.48598507 348.99364877 -309.1328125 309.05859375 C-310.93752869 307.04027588 -312.65780217 304.96847624 -314.375 302.875 C-314.80006836 302.37291016 -315.22513672 301.87082031 -315.66308594 301.35351562 C-334.136087 279.52063448 -348.09313956 253.5782293 -355.375 225.875 C-355.70854492 224.64716797 -355.70854492 224.64716797 -356.04882812 223.39453125 C-361.28627178 203.90706284 -363.80795386 184.02876491 -364.375 163.875 C-364.41625 162.57433594 -364.4575 161.27367187 -364.5 159.93359375 C-365.43719446 100.01172328 -348.07757733 41.73657035 -305.9206543 -1.86254883 C-239.46779101 -69.32905691 -121.3832127 -76.441775 0 0 Z M-216.375 70.875 C-223.86320321 79.82737702 -228.73221029 90.25911481 -232.25 101.3125 C-232.46543457 101.98684082 -232.68086914 102.66118164 -232.90283203 103.35595703 C-234.04062724 107.12566958 -234.375 109.85280923 -234.375 113.875 C-182.895 113.875 -131.415 113.875 -78.375 113.875 C-78.375 95.30013888 -83.61343199 80.54810858 -96.375 66.875 C-114.05885561 50.3859995 -135.89442056 44.11626847 -159.62109375 44.625 C-181.59844735 45.5085117 -201.32972229 55.10912118 -216.375 70.875 Z " fill="#6265F1" transform="translate(1274.375,1178.125)"/>
<path d="M0 0 C48.51 0 97.02 0 147 0 C147 160.38 147 320.76 147 486 C210.03 486 273.06 486 338 486 C339.58048529 487.58048529 339.12597951 489.17170572 339.12698364 491.36547852 C339.12980347 492.30779327 339.13262329 493.25010803 339.13552856 494.22097778 C339.13249222 495.78415237 339.13249222 495.78415237 339.12939453 497.37890625 C339.13202301 499.0153157 339.13202301 499.0153157 339.13470459 500.68478394 C339.13912563 504.31070521 339.13618422 507.93657818 339.1328125 511.5625 C339.13348547 514.06974293 339.13445543 516.57698581 339.13571167 519.08422852 C339.13718899 524.34684751 339.1351276 529.60945382 339.13037109 534.87207031 C339.12492851 540.96428202 339.12669118 547.05646026 339.1321975 553.14867115 C339.13727443 558.99901018 339.13674705 564.84933645 339.13381577 570.69967651 C339.13314624 573.19408167 339.13397579 575.68848768 339.13629532 578.18289185 C339.13882036 581.66231586 339.13498334 585.14167462 339.12939453 588.62109375 C339.13141876 589.66321014 339.13344299 590.70532654 339.13552856 591.77902222 C339.13129883 593.19249435 339.13129883 593.19249435 339.12698364 594.63452148 C339.12660662 595.45822739 339.12622959 596.28193329 339.12584114 597.13059998 C339 599 339 599 338 600 C336.20159951 600.09747419 334.39932091 600.12371414 332.59828091 600.12304783 C331.41853003 600.1250387 330.23877914 600.12702957 329.02327824 600.12908077 C327.71142268 600.12616811 326.39956713 600.12325544 325.04795837 600.12025452 C323.65629558 600.12069152 322.26463286 600.12156765 320.87297058 600.12284851 C317.02308516 600.12510345 313.17322727 600.12106184 309.32334535 600.11607273 C305.11765849 600.11172517 300.91197302 600.11316607 296.70628452 600.11389065 C288.53169393 600.11442366 280.35711426 600.10979319 272.18252647 600.10338932 C262.73272651 600.09620715 253.28293318 600.09539555 243.83312988 600.09460449 C218.86791818 600.08934785 193.90270893 600.07538683 168.9375 600.0625 C85.3134375 600.0315625 85.3134375 600.0315625 0 600 C0 402 0 204 0 0 Z " fill="#6365F0" transform="translate(763,1431)"/>
<path d="M0 0 C133.98 0 267.96 0 406 0 C406 34.32 406 68.64 406 104 C360.46 104 314.92 104 268 104 C268 242.6 268 381.2 268 524 C225.43 524 182.86 524 139 524 C139 385.4 139 246.8 139 104 C93.13 104 47.26 104 0 104 C0 69.68 0 35.36 0 0 Z " fill="#6366F1" transform="translate(468,1018)"/>
</svg>
