<?xml version="1.0" encoding="UTF-8"?>
<svg version="1.1" xmlns="http://www.w3.org/2000/svg" width="3264" height="3264">
<path d="M0 0 C0.9993457 0.17660156 1.99869141 0.35320312 3.02832031 0.53515625 C48.13957356 8.86908603 88.7432205 31.07039265 123 61 C123.9178125 61.7940625 124.835625 62.588125 125.78125 63.40625 C130.25771118 67.34337851 134.39308005 71.36258099 138.234375 75.921875 C140.20052556 78.23601681 142.25347972 80.4556948 144.3125 82.6875 C205.65756375 150.80239251 225.68949218 247.42590599 221.4375 336.6875 C217.01649409 415.58545155 193.18375066 492.4377011 139.1875 551.58984375 C137.06733383 553.92581254 135.0030269 556.30326875 132.9375 558.6875 C129.84729618 562.16855963 126.60010787 565.26328095 123.046875 568.265625 C120.92136764 570.06662742 118.87042157 571.93483433 116.8125 573.8125 C82.77404785 603.92121574 39.62725407 623.35426145 -5 631 C-6.05058594 631.19207031 -7.10117188 631.38414062 -8.18359375 631.58203125 C-18.33822993 633.38011332 -28.42336137 634.15365922 -38.73046875 634.203125 C-39.71564484 634.21018463 -40.70082092 634.21724426 -41.71585083 634.22451782 C-82.308269 634.44950952 -82.308269 634.44950952 -100 631 C-101.03640625 630.81195801 -102.0728125 630.62391602 -103.140625 630.43017578 C-147.00828452 622.34014526 -185.85478985 601.74001458 -218 571 C-218.92683594 570.12601563 -219.85367188 569.25203125 -220.80859375 568.3515625 C-228.05487724 561.34168258 -236.44564311 553.10871378 -241 544 C-241.33 668.41 -241.66 792.82 -242 921 C-305.36 921 -368.72 921 -434 921 C-434 618.39 -434 315.78 -434 4 C-370.64 4 -307.28 4 -242 4 C-241.67 31.39 -241.34 58.78 -241 87 C-238.36 83.37 -235.72 79.74 -233 76 C-231.0469897 73.5852793 -229.09871257 71.21390696 -227.0625 68.875 C-226.55017822 68.28372314 -226.03785645 67.69244629 -225.51000977 67.08325195 C-218.01613632 58.50896986 -209.99544678 50.99133956 -201 44 C-200.46165527 43.57992676 -199.92331055 43.15985352 -199.36865234 42.72705078 C-183.88881819 30.74051253 -167.06317213 20.58446793 -149 13 C-148.28086426 12.69755371 -147.56172852 12.39510742 -146.82080078 12.08349609 C-101.34973372 -6.64223436 -48.00307696 -8.5552843 0 0 Z M-189 190 C-189.54462891 190.44069824 -190.08925781 190.88139648 -190.65039062 191.33544922 C-215.59065661 211.63550585 -231.14120559 237.31077204 -238.75 268.5 C-238.94867676 269.3051001 -239.14735352 270.1102002 -239.35205078 270.93969727 C-242.68106559 285.34973864 -243.40814007 299.71243547 -243.375 314.4375 C-243.37478851 315.31029602 -243.37457703 316.18309204 -243.37435913 317.08233643 C-243.33910234 331.72342875 -242.29378041 345.68545226 -239 360 C-238.81808105 360.82000488 -238.63616211 361.64000977 -238.44873047 362.48486328 C-235.75402961 374.29193951 -231.30150812 385.13790801 -226 396 C-225.4946875 397.04027344 -224.989375 398.08054687 -224.46875 399.15234375 C-208.75880622 429.56854046 -179.90509368 451.1723827 -148 462 C-144.02263368 463.24376585 -140.09249844 464.22464061 -136 465 C-134.61167969 465.30357422 -134.61167969 465.30357422 -133.1953125 465.61328125 C-110.06045212 470.02993641 -84.98223141 467.06576947 -63 459 C-61.95714844 458.61972656 -60.91429688 458.23945313 -59.83984375 457.84765625 C-37.36034528 449.05133076 -17.50207211 433.17652642 -3 414 C-2.40832031 413.23558594 -1.81664063 412.47117187 -1.20703125 411.68359375 C25.68478967 375.31502129 30.57899664 326.65170129 25 283 C20.182271 250.89371492 7.29720327 224.44759008 -15 201 C-15.57105469 200.36449219 -16.14210938 199.72898437 -16.73046875 199.07421875 C-37.97430576 176.19203955 -70.76706446 164.38025052 -101.32714844 162.88623047 C-133.21408826 161.83392175 -163.90146281 169.48818379 -189 190 Z " fill="#6265F1" transform="translate(2897,1615)"/>
<path d="M0 0 C0.54591797 0.47002441 1.09183594 0.94004883 1.65429688 1.42431641 C7.58875803 6.57861668 13.03238598 11.9139171 18 18 C18.42361816 18.50595703 18.84723633 19.01191406 19.28369141 19.53320312 C27.36507896 29.19205535 34.35297613 39.3098061 41 50 C41.556875 49.17757813 42.11375 48.35515625 42.6875 47.5078125 C50.89843205 35.45906359 59.98261309 24.5792125 70 14 C70.639375 13.31808594 71.27875 12.63617187 71.9375 11.93359375 C76.88482972 6.80787474 82.42992265 2.42544103 88 -2 C88.94359375 -2.77214844 89.8871875 -3.54429688 90.859375 -4.33984375 C141.23569984 -44.60175104 203.01292739 -56.86487271 266 -50 C313.00532884 -44.14719641 356.12761611 -26.26410153 390.56787109 6.63525391 C391.94699053 7.94948467 393.34235213 9.24660661 394.73828125 10.54296875 C439.67060733 53.52454261 455.41399674 117.81774458 457.1120286 177.9684782 C457.29094437 187.30920803 457.25710492 196.652507 457.23213124 205.99445391 C457.2233239 210.14669241 457.22642883 214.29892663 457.22793579 218.45117188 C457.22897396 225.60981516 457.2228108 232.76842139 457.21146011 239.92705536 C457.19506072 250.27665997 457.18998252 260.62624705 457.18748413 270.97586325 C457.1831294 287.77591112 457.1698813 304.57593933 457.15087891 321.37597656 C457.1324621 337.67545476 457.11835715 353.97492755 457.10986328 370.27441406 C457.10932729 371.29286116 457.10879129 372.31130826 457.10823905 373.3606174 C457.10407911 381.32800856 457.10016565 389.29539983 457.09632993 397.26279116 C457.07753358 436.17521215 457.03728036 475.08758383 457 514 C400.24 514 343.48 514 285 514 C284.96261719 491.51617188 284.92523437 469.03234375 284.88671875 445.8671875 C284.85643817 431.61197336 284.82542874 417.35676638 284.79101562 403.1015625 C284.77296801 395.60970105 284.75510442 388.11783919 284.73754883 380.62597656 C284.73534114 379.68711452 284.73313345 378.74825247 284.73085886 377.78094006 C284.69557882 362.66352128 284.67066981 347.54610256 284.64965298 332.42865799 C284.62781858 316.89084854 284.59469637 301.35309208 284.55129844 285.81532776 C284.52491268 276.24324085 284.5071213 266.67121983 284.50065396 257.0990984 C284.49535975 250.51720528 284.47900945 243.93539477 284.45433434 237.35354607 C284.4404559 233.56758231 284.4310964 229.78176594 284.43499184 225.99577522 C284.46505339 189.05854221 280.86118527 154.18490417 254.5625 126.1875 C235.74033302 108.49814862 210.46881398 100.0086659 185 99 C183.9996875 98.95875 182.999375 98.9175 181.96875 98.875 C152.69331985 98.28357717 124.69255931 106.06807447 102.82421875 126.1484375 C81.53620458 147.75554396 73.86547823 177.70071294 73.84178162 207.23072815 C73.83437465 209.20236802 73.83437465 209.20236802 73.82681805 211.21383899 C73.81331731 214.84200538 73.80584215 218.47016247 73.79939139 222.09834731 C73.79135175 226.01848215 73.77766636 229.93859786 73.76467896 233.85871887 C73.74296655 240.64389506 73.72480304 247.42907323 73.70907402 254.21426582 C73.68632755 264.0244237 73.65819144 273.83456035 73.62875474 283.64470016 C73.58113727 299.56235907 73.53785732 315.48002669 73.49731445 331.39770508 C73.45792974 346.85702186 73.41648526 362.31633088 73.37231445 377.77563477 C73.36956495 378.73882376 73.36681544 379.70201275 73.36398262 380.69438928 C73.34246251 388.22755379 73.32082322 395.76071795 73.29914629 403.29388201 C73.19298999 440.19590567 73.09722498 477.09794965 73 514 C16.24 514 -40.52 514 -99 514 C-99.03738281 491.59996094 -99.07476563 469.19992187 -99.11328125 446.12109375 C-99.1435631 431.9160098 -99.17457348 417.71093303 -99.20898438 403.50585938 C-99.2270318 396.03995821 -99.24489535 388.57405664 -99.26245117 381.1081543 C-99.2657627 379.70475525 -99.2657627 379.70475525 -99.26914114 378.27300471 C-99.30441416 363.21121715 -99.3293271 348.14942963 -99.35034702 333.0876162 C-99.37218706 317.60517244 -99.40531449 302.1227818 -99.44870156 286.6403833 C-99.47507773 277.10361516 -99.49287612 267.56691307 -99.49934604 258.03011031 C-99.50464324 251.47110351 -99.52100323 244.9121795 -99.54566566 238.35321724 C-99.55953412 234.58130637 -99.56890751 230.80954317 -99.56500816 227.03760529 C-99.53449056 189.71383519 -102.78961947 154.26453353 -129.69140625 126.19140625 C-150.82414386 105.98149561 -179.90448806 98.22897177 -208.5703125 98.8125 C-237.50430298 100.39431269 -264.60279922 108.24739366 -285 130 C-307.72752642 157.37536953 -310.46727478 189.16455849 -310.43273985 223.37506914 C-310.43210776 227.28753377 -310.4488119 231.19993298 -310.46325684 235.11236572 C-310.48589566 241.8673478 -310.49790226 248.62227883 -310.50238609 255.37729645 C-310.50888454 265.14352825 -310.5318861 274.90966832 -310.55872939 284.67586288 C-310.60185627 300.52640863 -310.6319032 316.37695049 -310.65356445 332.22753906 C-310.67461663 347.61167312 -310.7019622 362.99577523 -310.73754883 378.37988281 C-310.73976234 379.34012383 -310.74197585 380.30036485 -310.74425644 381.28970408 C-310.76161993 388.80103559 -310.77934476 396.31236623 -310.79718363 403.82369661 C-310.88431162 440.54911118 -310.93996397 477.27451184 -311 514 C-368.09 514 -425.18 514 -484 514 C-484 329.2 -484 144.4 -484 -46 C-427.24 -46 -370.48 -46 -312 -46 C-310.18502618 -44.18502618 -310.82764607 -41.36404428 -310.79467773 -38.91967773 C-310.77473251 -37.61840439 -310.75478729 -36.31713104 -310.73423767 -34.97642517 C-310.71725201 -33.5454826 -310.70037325 -32.11453875 -310.68359375 -30.68359375 C-310.66303094 -29.2277008 -310.64203466 -27.77181391 -310.62062073 -26.31593323 C-310.56533039 -22.47727353 -310.51595198 -18.63855935 -310.46777344 -14.79980469 C-310.41760909 -10.88536712 -310.36189664 -6.97100904 -310.30664062 -3.05664062 C-310.19897397 4.62883901 -310.09754807 12.31438457 -310 20 C-309.3827153 19.24182983 -308.7654306 18.48365967 -308.12944031 17.70251465 C-307.31932999 16.70949341 -306.50921967 15.71647217 -305.67456055 14.69335938 C-304.470196 13.21579163 -304.470196 13.21579163 -303.24150085 11.70837402 C-295.3173827 2.13377327 -285.98833152 -5.68224428 -276 -13 C-275.15042725 -13.62406738 -275.15042725 -13.62406738 -274.28369141 -14.26074219 C-250.9046748 -31.17950255 -223.4624217 -43.12549366 -195 -48 C-194.18160645 -48.14131348 -193.36321289 -48.28262695 -192.52001953 -48.42822266 C-124.88210076 -59.83996013 -52.64493964 -45.35849215 0 0 Z " fill="#6366F1" transform="translate(2515,1085)"/>
<path d="M0 0 C0.84056442 -0.00428009 1.68112885 -0.00856018 2.54716492 -0.01296997 C5.24504014 -0.02289612 7.9427351 -0.02303473 10.640625 -0.01953125 C12.02521408 -0.01812637 12.02521408 -0.01812637 13.43777466 -0.01669312 C63.30941269 0.09331267 111.93766049 11.69389293 152.890625 41.16796875 C153.44943359 41.56983398 154.00824219 41.97169922 154.58398438 42.38574219 C173.40729839 56.07843427 188.08191653 72.33791175 201.890625 91.16796875 C202.220625 63.77796875 202.550625 36.38796875 202.890625 8.16796875 C265.920625 8.16796875 328.950625 8.16796875 393.890625 8.16796875 C393.890625 213.42796875 393.890625 418.68796875 393.890625 630.16796875 C330.860625 630.16796875 267.830625 630.16796875 202.890625 630.16796875 C202.560625 602.44796875 202.230625 574.72796875 201.890625 546.16796875 C199.250625 549.79796875 196.610625 553.42796875 193.890625 557.16796875 C182.74836906 571.29105711 170.31515839 583.44523546 155.890625 594.16796875 C155.33294434 594.59174805 154.77526367 595.01552734 154.20068359 595.45214844 C117.47133694 623.33944345 70.10561124 638.28020587 24.1328125 638.3359375 C23.14548126 638.3392659 22.15815002 638.3425943 21.14089966 638.34602356 C19.06529195 638.35104957 16.98967629 638.35343324 14.9140625 638.35327148 C11.79413007 638.35544886 8.67455724 638.37362657 5.5546875 638.39257812 C-6.16696513 638.42554584 -17.5096817 637.91150218 -29.109375 636.16796875 C-30.16664291 636.01061501 -30.16664291 636.01061501 -31.24526978 635.8500824 C-78.44774353 628.76181661 -122.36276726 607.54739771 -158.109375 576.16796875 C-158.96015625 575.42933594 -159.8109375 574.69070313 -160.6875 573.9296875 C-171.40210199 564.47664348 -181.3343787 554.45688291 -190.109375 543.16796875 C-190.89699219 542.18570313 -191.68460938 541.2034375 -192.49609375 540.19140625 C-202.69609181 527.36584568 -211.24169507 513.47176437 -219.05957031 499.09130859 C-220.08108773 497.21979366 -221.12077589 495.35944624 -222.1640625 493.5 C-227.59730471 483.70859834 -231.98373307 473.5704802 -236.109375 463.16796875 C-236.41230469 462.41032227 -236.71523437 461.65267578 -237.02734375 460.87207031 C-248.49868823 431.90567318 -255.54283587 400.88149013 -258.81689453 369.93115234 C-259.00773177 368.12823427 -259.20876319 366.32635763 -259.42138672 364.52587891 C-263.38789714 330.50662917 -262.44357814 295.10612076 -258.109375 261.16796875 C-257.96483887 260.01796387 -257.82030273 258.86795898 -257.67138672 257.68310547 C-249.51345062 194.88596943 -225.08535911 134.00423636 -183.109375 86.16796875 C-182.5215625 85.46929688 -181.93375 84.770625 -181.328125 84.05078125 C-172.5813286 73.71755609 -162.75326187 64.50811024 -152.109375 56.16796875 C-151.05300933 55.300216 -149.99839413 54.430329 -148.9453125 53.55859375 C-111.887094 23.18362581 -65.20463503 6.80584522 -18.109375 1.16796875 C-17.43357391 1.08167709 -16.75777283 0.99538544 -16.06149292 0.90647888 C-10.68987319 0.25363461 -5.40857312 0.00840947 0 0 Z M20.890625 175.16796875 C19.89417969 175.5134375 18.89773438 175.85890625 17.87109375 176.21484375 C2.92650167 181.85739835 -10.49970228 191.32325949 -22.109375 202.16796875 C-23.07488281 203.06386719 -24.04039062 203.95976563 -25.03515625 204.8828125 C-53.12890593 231.9662752 -65.50773946 270.46737553 -66.390625 308.81640625 C-66.67732918 325.11537763 -66.4237768 341.1477705 -63.109375 357.16796875 C-62.96483887 357.90418457 -62.82030273 358.64040039 -62.67138672 359.39892578 C-55.44381959 395.63280881 -35.9213163 428.17300036 -5.109375 449.23046875 C23.43299229 468.04876201 59.08206499 476.12803455 92.88061523 469.58300781 C127.03442529 462.22743831 157.21248868 443.40786913 176.8828125 414.2109375 C196.60003025 383.10069704 204.62614828 347.92877338 202.890625 311.16796875 C202.84953613 310.29237305 202.80844727 309.41677734 202.76611328 308.51464844 C201.37424936 282.23376739 195.63699692 257.31254888 182.890625 234.16796875 C182.53403809 233.51183594 182.17745117 232.85570312 181.81005859 232.1796875 C165.72623291 203.0954267 136.82720084 181.38584521 105.18310547 171.76000977 C77.58141749 164.06383627 47.73551777 165.36323344 20.890625 175.16796875 Z " fill="#6265F0" transform="translate(1933.109375,1610.83203125)"/>
<path d="M0 0 C1.66820801 0.00173721 1.66820801 0.00173721 3.37011719 0.00350952 C20.75921325 0.03921704 37.71286632 0.80231744 54.9375 3.3125 C56.6300116 3.53276703 58.32270983 3.75160649 60.015625 3.96875 C106.27195728 10.23619749 155.78842199 28.46209159 192.9375 57.3125 C193.99324219 58.10398437 195.04898437 58.89546875 196.13671875 59.7109375 C203.06154888 64.91844207 209.5815951 70.41617592 215.9375 76.3125 C216.94954376 77.23414697 217.96261168 78.15467025 218.9765625 79.07421875 C228.07474226 87.33489143 236.26728744 95.68497642 243.9375 105.3125 C244.82656358 106.41036632 245.71589406 107.50801653 246.60546875 108.60546875 C283.50218818 154.43990283 302.66153802 210.250293 308.9375 268.3125 C309.07345581 269.55652588 309.07345581 269.55652588 309.2121582 270.82568359 C310.05859789 279.26152207 310.37195358 287.71706342 310.625 296.1875 C310.66110382 297.37588974 310.66110382 297.37588974 310.69793701 298.58828735 C312.28086542 354.62576916 312.28086542 354.62576916 306.9375 365.3125 C165.0375 365.3125 23.1375 365.3125 -123.0625 365.3125 C-116.19144826 403.79038974 -106.86432048 438.40107851 -73.64404297 461.69506836 C-47.3823798 479.39771174 -14.10156194 485.65214128 17.0625 480.125 C19.71503613 479.59468492 22.30959353 478.96947662 24.9375 478.3125 C25.60394531 478.14621094 26.27039062 477.97992187 26.95703125 477.80859375 C41.57080255 474.03639657 54.70026934 467.51273789 65.9375 457.3125 C66.76765625 456.56355469 67.5978125 455.81460938 68.453125 455.04296875 C73.93917281 449.83458901 78.40150901 444.21013334 82.63671875 437.9765625 C83.19341578 437.16817869 83.19341578 437.16817869 83.76135921 436.3434639 C85.06446649 434.22947554 85.06446649 434.22947554 86.00714207 431.37757492 C87.58708906 427.63337245 89.03119639 425.17636352 91.9375 422.3125 C98.02173323 420.01138338 105.0762108 420.80029628 111.45874023 420.95019531 C113.46959733 420.95358176 115.48046927 420.95167713 117.49131775 420.94488525 C122.94244627 420.94144432 128.39040118 421.01194638 133.84079242 421.09577274 C139.53945455 421.17083155 145.23819096 421.17784064 150.93727112 421.19207764 C161.72544287 421.22936352 172.51215394 421.32781851 183.29968268 421.44827151 C195.58235496 421.58243953 207.86509734 421.64838859 220.14832008 421.70861673 C245.41218963 421.83402071 270.67476295 422.04506599 295.9375 422.3125 C294.85400231 430.32052213 292.52226943 437.689009 289.9375 445.3125 C289.64375488 446.18616211 289.35000977 447.05982422 289.04736328 447.95996094 C278.58452412 478.61150724 262.57252737 506.40399093 241.9375 531.3125 C241.50356934 531.84794434 241.06963867 532.38338867 240.62255859 532.93505859 C228.39235653 548.01283617 214.53642288 562.70111634 198.9375 574.3125 C197.48564727 575.41923172 196.0338275 576.52600669 194.58203125 577.6328125 C185.60629834 584.41510409 176.53705219 590.74290382 166.74267578 596.28125 C164.94598915 597.30765037 163.17372962 598.36813128 161.40234375 599.4375 C130.89848133 617.58087949 96.16630841 628.85500038 61.25 634.5625 C60.32646729 634.71364258 59.40293457 634.86478516 58.45141602 635.02050781 C55.284846 635.50318842 52.1165522 635.91967361 48.9375 636.3125 C48.2355249 636.39970306 47.5335498 636.48690613 46.81030273 636.57675171 C32.22999743 638.32802927 17.73124323 638.6540609 3.05615234 638.62817383 C-0.66208482 638.62502155 -4.379517 638.64854969 -8.09765625 638.67382812 C-29.81140036 638.732021 -51.25582931 636.90189737 -72.5625 632.625 C-73.84237793 632.37153809 -75.12225586 632.11807617 -76.44091797 631.85693359 C-129.70489898 621.03610911 -177.69445908 596.44982921 -218.0625 560.3125 C-218.79726562 559.68085938 -219.53203125 559.04921875 -220.2890625 558.3984375 C-224.5989597 554.66511518 -228.51723954 550.84824626 -232.1953125 546.4921875 C-234.35510305 543.97092572 -236.61360892 541.55546705 -238.875 539.125 C-297.39080458 474.69583357 -317.48076554 383.83689713 -313.67138672 298.91674805 C-309.8272062 228.06225834 -289.24257173 160.54509907 -244.375 104.875 C-243.85252686 104.22466797 -243.33005371 103.57433594 -242.79174805 102.90429688 C-239.59359664 98.99192683 -236.21242163 95.38346972 -232.60473633 91.84643555 C-230.87547898 90.12648559 -229.30107085 88.31885278 -227.75 86.4375 C-223.56714229 81.62031881 -218.90227235 77.45431376 -214.0625 73.3125 C-213.46147461 72.79381348 -212.86044922 72.27512695 -212.24121094 71.74072266 C-153.37862469 21.18900776 -76.56572997 -0.24861795 0 0 Z M-94.25 193.625 C-110.11900086 212.16078317 -117.75587836 234.62608096 -122.0625 258.3125 C-44.1825 258.3125 33.6975 258.3125 113.9375 258.3125 C112.11572937 229.16416988 105.72980863 207.13413487 84.9375 186.3125 C84.15761719 185.52101563 83.37773438 184.72953125 82.57421875 183.9140625 C58.02192349 160.39337629 24.72552288 153.58994977 -8.12109375 154.0625 C-41.87865405 154.98094811 -71.21203944 169.08158855 -94.25 193.625 Z " fill="#6265F0" transform="translate(1301.0625,1610.6875)"/>
<path d="M0 0 C36.64239263 -1.26243563 74.4427344 5.50265007 106.87646484 23.03662109 C108.84091555 24.0981381 110.81810301 25.13299439 112.79638672 26.16845703 C126.79370378 33.63165088 139.37590552 43.09594581 150.81201172 54.08251953 C151.30765625 54.54706543 151.80330078 55.01161133 152.31396484 55.49023438 C153.97287745 57.04886642 155.61270985 58.62570379 157.24951172 60.20751953 C157.73895264 60.66698975 158.22839355 61.12645996 158.73266602 61.59985352 C165.06256571 67.8357802 169.40292841 74.70649683 174.81201172 82.08251953 C175.14201172 57.66251953 175.47201172 33.24251953 175.81201172 8.08251953 C232.90201172 8.08251953 289.99201172 8.08251953 348.81201172 8.08251953 C348.81201172 192.88251953 348.81201172 377.68251953 348.81201172 568.08251953 C291.72201172 568.08251953 234.63201172 568.08251953 175.81201172 568.08251953 C175.31701172 531.45251953 175.31701172 531.45251953 174.81201172 494.08251953 C171.51201172 498.37251953 168.21201172 502.66251953 164.81201172 507.08251953 C130.03557722 547.84015899 81.09707669 570.64386007 28.10888672 575.67236328 C20.45462242 576.25570507 12.79683318 576.32638949 5.12451172 576.33251953 C3.97541321 576.33353165 3.97541321 576.33353165 2.80310059 576.33456421 C-47.74537482 576.26436893 -98.45886085 561.04239538 -138.18798828 529.08251953 C-139.04779297 528.41349609 -139.90759766 527.74447266 -140.79345703 527.05517578 C-146.58205491 522.46362916 -152.03154761 517.55201505 -157.43798828 512.52001953 C-158.43040527 511.600354 -158.43040527 511.600354 -159.44287109 510.66210938 C-163.9972638 506.37595784 -168.15489668 501.85972182 -172.18798828 497.08251953 C-172.71763184 496.45901611 -173.24727539 495.8355127 -173.79296875 495.19311523 C-230.44342178 427.95041866 -248.22642251 337.69349545 -241.17016602 251.69335938 C-235.7105052 192.73973655 -217.30819828 133.36619486 -179.18798828 87.08251953 C-178.7402002 86.53321777 -178.29241211 85.98391602 -177.83105469 85.41796875 C-166.54406966 71.64368845 -154.26300678 59.00372443 -139.93408203 48.38867188 C-138.18425406 47.07972618 -136.46659885 45.7360512 -134.75048828 44.38330078 C-124.30241812 36.27504234 -112.92143047 30.12618979 -101.18798828 24.08251953 C-100.5236377 23.73205566 -99.85928711 23.3815918 -99.17480469 23.02050781 C-68.79336406 7.07546092 -33.91895985 1.27924664 0 0 Z M-24.18798828 181.08251953 C-24.87892578 181.63681641 -25.56986328 182.19111328 -26.28173828 182.76220703 C-49.59049778 202.09367821 -61.15585662 232.90032921 -65.18798828 262.08251953 C-65.28225098 262.72769531 -65.37651367 263.37287109 -65.47363281 264.03759766 C-66.4431137 271.43964495 -66.43158252 278.87805367 -66.43798828 286.33251953 C-66.43866302 287.04016449 -66.43933777 287.74780945 -66.44003296 288.47689819 C-66.37964395 328.51481091 -54.46360756 364.15874852 -26.18798828 393.08251953 C-2.99285675 415.66116916 26.72829586 425.6437285 58.64208984 425.4362793 C67.35369171 425.24958313 75.37655086 424.30096523 83.81201172 422.08251953 C84.45895996 421.91623047 85.1059082 421.74994141 85.77246094 421.57861328 C107.9682053 415.73905082 126.03723663 403.68754594 141.81201172 387.08251953 C142.39208984 386.48568359 142.97216797 385.88884766 143.56982422 385.27392578 C162.47992923 365.06606846 171.19741083 339.01379758 174.81201172 312.08251953 C174.90772461 311.40600342 175.0034375 310.7294873 175.10205078 310.0324707 C180.00370148 271.78993249 172.93176779 229.56894038 149.37451172 198.39501953 C128.32644236 172.33550509 100.96484043 155.02520805 67.31201172 151.39501953 C65.47996672 151.27022806 63.64636551 151.16682827 61.81201172 151.08251953 C60.80396484 151.02966797 59.79591797 150.97681641 58.75732422 150.92236328 C27.15733072 150.06730463 -0.12599915 161.16106749 -24.18798828 181.08251953 Z " fill="#6265F0" transform="translate(1560.18798828125,1030.91748046875)"/>
<path d="M0 0 C62.33455591 -1.72557338 127.8900063 12.80843936 178.89599609 50.06201172 C179.74943604 50.68438721 179.74943604 50.68438721 180.62011719 51.31933594 C187.25709436 56.20548867 193.56037927 61.39017959 199.62646484 66.97607422 C201.72359659 68.90355847 203.85975964 70.76962529 206.02099609 72.62451172 C213.8280738 79.46157175 220.42566449 86.95983281 226.89599609 95.06201172 C227.55470703 95.85349609 228.21341797 96.64498047 228.89208984 97.46044922 C234.80370667 104.62099917 239.89292664 112.25364974 244.89599609 120.06201172 C245.27369141 120.64547363 245.65138672 121.22893555 246.04052734 121.83007812 C284.71571258 182.01235621 293.85823861 260.32631407 283.89599609 330.06201172 C156.18599609 330.06201172 28.47599609 330.06201172 -103.10400391 330.06201172 C-97.25870769 363.18535696 -89.63634566 392.16707151 -62.10400391 414.06201172 C-57.88937828 416.95988459 -53.56337276 419.56027774 -49.10400391 422.06201172 C-48.29576172 422.53380859 -47.48751953 423.00560547 -46.65478516 423.49169922 C-22.39095705 436.75647451 8.87298967 437.24198682 35.02490234 429.96044922 C52.81340821 424.604675 69.56992883 413.77433099 79.89599609 398.06201172 C80.59792074 396.64874393 81.27178959 395.22126026 81.91974449 393.78244877 C87.14080019 382.50932057 87.14080019 382.50932057 91.74378252 380.09136653 C97.03831546 378.57281838 102.47416612 378.9295042 107.921875 379.13208008 C109.73613023 379.13688173 111.55041843 379.13417107 113.36465454 379.1245575 C118.26766114 379.11969747 123.16353479 379.21929205 128.06488848 379.33831477 C133.19477218 379.44491763 138.32483756 379.45459787 143.45565796 379.4747467 C153.16087045 379.52749314 162.86281005 379.66685531 172.56658399 379.83768803 C183.61813682 380.02800529 194.66984982 380.12124661 205.72263455 380.20651042 C228.44889993 380.38399244 251.17226431 380.68281501 273.89599609 381.06201172 C273.58100843 382.66599512 273.26442209 384.26966462 272.94715881 385.87319946 C272.77103089 386.76627619 272.59490297 387.65935291 272.41343784 388.57949257 C264.1734803 428.11215961 239.75730822 466.42362639 211.89599609 495.06201172 C211.28208008 495.70170898 210.66816406 496.34140625 210.03564453 497.00048828 C201.20441641 506.18373347 192.15832016 514.51522921 181.89599609 522.06201172 C180.79024884 522.8975808 179.68477929 523.73351749 178.57958984 524.56982422 C164.46128331 535.09887032 148.85112872 543.65454304 132.89599609 551.06201172 C132.19635742 551.38766113 131.49671875 551.71331055 130.77587891 552.04882812 C60.73848049 584.15582503 -24.70741439 583.65582045 -97.10400391 560.06201172 C-98.22427979 559.70550537 -98.22427979 559.70550537 -99.3671875 559.34179688 C-119.7437706 552.76201663 -140.50054005 542.22852003 -158.10400391 530.06201172 C-158.69632813 529.66062988 -159.28865234 529.25924805 -159.89892578 528.84570312 C-168.78456619 522.80796308 -177.06729488 516.18413158 -185.10400391 509.06201172 C-185.64412109 508.58505859 -186.18423828 508.10810547 -186.74072266 507.61669922 C-243.55732647 457.14304167 -270.2231318 384.58233132 -274.91210938 310.02758789 C-275.24624656 303.12251115 -275.30183671 296.22418188 -275.29150391 289.31201172 C-275.29089966 288.55566437 -275.29029541 287.79931702 -275.28967285 287.02005005 C-275.20898966 249.44480772 -269.94253641 213.07667477 -258.10400391 177.37451172 C-257.70101074 176.15795898 -257.29801758 174.94140625 -256.8828125 173.68798828 C-252.67386457 161.31628344 -247.63644645 149.4889971 -241.29150391 138.06201172 C-240.77233398 137.11994873 -240.25316406 136.17788574 -239.71826172 135.20727539 C-222.59629952 104.43252394 -199.58146794 76.00087917 -171.10400391 55.06201172 C-170.47333008 54.58699219 -169.84265625 54.11197266 -169.19287109 53.62255859 C-157.48959534 44.82336464 -145.10114207 37.76850617 -132.10400391 31.06201172 C-131.34490723 30.65885742 -130.58581055 30.25570313 -129.80371094 29.84033203 C-90.27644838 8.92200179 -44.24975364 1.30418165 0 0 Z M-71.10400391 169.06201172 C-72.01150391 169.92826172 -72.91900391 170.79451172 -73.85400391 171.68701172 C-74.59650391 172.47076172 -75.33900391 173.25451172 -76.10400391 174.06201172 C-77.01150391 175.01076172 -77.91900391 175.95951172 -78.85400391 176.93701172 C-85.7700885 185.20431079 -90.91175549 194.84932956 -94.91650391 204.81201172 C-95.18197021 205.45243408 -95.44743652 206.09285645 -95.72094727 206.75268555 C-98.9814786 215.32220135 -100.18224584 223.93366091 -102.10400391 233.06201172 C-32.14400391 233.06201172 37.81599609 233.06201172 109.89599609 233.06201172 C109.89599609 212.71402464 104.99781795 193.05812163 91.89599609 177.06201172 C91.12900391 176.10939453 90.36201172 175.15677734 89.57177734 174.17529297 C73.16464813 154.64838761 47.93474109 143.06945874 22.89599609 140.06201172 C21.51154297 139.89572266 21.51154297 139.89572266 20.09912109 139.72607422 C-13.90589721 136.17187739 -46.23335534 145.20273888 -71.10400391 169.06201172 Z " fill="#6265F0" transform="translate(978.10400390625,1030.93798828125)"/>
<path d="M0 0 C63.03 0 126.06 0 191 0 C191 208.56 191 417.12 191 632 C273.17 632 355.34 632 440 632 C440 681.17 440 730.34 440 781 C294.8 781 149.6 781 0 781 C0 523.27 0 265.54 0 0 Z " fill="#6265F1" transform="translate(496,1460)"/>
<path d="M0 0 C179.85 0 359.7 0 545 0 C545 45.87 545 91.74 545 139 C483.62 139 422.24 139 359 139 C359 325.45 359 511.9 359 704 C301.91 704 244.82 704 186 704 C186 517.55 186 331.1 186 139 C124.62 139 63.24 139 0 139 C0 93.13 0 47.26 0 0 Z " fill="#6365F1" transform="translate(109,895)"/>
</svg>
